{
  "accessors": [
    {
      "bufferView": 2,
      "componentType": 5126,
      "count": 1432,
      "max": [
        0.49343204498291016,
        2.761368751525879,
        1.0658156871795654
      ],
      "min": [
        -4.85234260559082,
        -3.7332215309143066,
        -6.860569477081299
      ],
      "type": "VEC3"
    },
    {
      "bufferView": 2,
      "byteOffset": 17184,
      "componentType": 5126,
      "count": 1432,
      "max": [
        1.0,
        1.0,
        1.0
      ],
      "min": [
        -1.0,
        -1.0,
        -1.0
      ],
      "type": "VEC3"
    },
    {
      "bufferView": 1,
      "componentType": 5126,
      "count": 1432,
      "max": [
        1.0,
        1.0000001192092896
      ],
      "min": [
        0.0,
        0.0
      ],
      "type": "VEC2"
    },
    {
      "bufferView": 0,
      "componentType": 5125,
      "count": 2814,
      "type": "SCALAR"
    },
    {
      "bufferView": 2,
      "byteOffset": 34368,
      "componentType": 5126,
      "count": 3808,
      "max": [
        -0.45426690578460693,
        2.6809191703796387,
        -0.4036087989807129
      ],
      "min": [
        -4.723402976989746,
        -3.719938039779663,
        -6.215973854064941
      ],
      "type": "VEC3"
    },
    {
      "bufferView": 2,
      "byteOffset": 80064,
      "componentType": 5126,
      "count": 3808,
      "max": [
        1.0,
        1.0,
        1.0
      ],
      "min": [
        -1.0,
        -1.0,
        -1.0
      ],
      "type": "VEC3"
    },
    {
      "bufferView": 1,
      "byteOffset": 11456,
      "componentType": 5126,
      "count": 3808,
      "max": [
        1.000000238418579,
        1.0
      ],
      "min": [
        0.0,
        0.0
      ],
      "type": "VEC2"
    },
    {
      "bufferView": 0,
      "byteOffset": 11256,
      "componentType": 5125,
      "count": 7947,
      "type": "SCALAR"
    },
    {
      "bufferView": 2,
      "byteOffset": 125760,
      "componentType": 5126,
      "count": 2210,
      "max": [
        -0.4680519104003906,
        2.2470619678497314,
        -1.0014667510986328
      ],
      "min": [
        -2.1350767612457275,
        -2.4021832942962646,
        -5.078159809112549
      ],
      "type": "VEC3"
    },
    {
      "bufferView": 2,
      "byteOffset": 152280,
      "componentType": 5126,
      "count": 2210,
      "max": [
        1.0,
        1.0,
        1.0
      ],
      "min": [
        -1.0,
        -1.0,
        -1.0
      ],
      "type": "VEC3"
    },
    {
      "bufferView": 1,
      "byteOffset": 41920,
      "componentType": 5126,
      "count": 2210,
      "max": [
        1.0,
        1.0
      ],
      "min": [
        0.0,
        0.0
      ],
      "type": "VEC2"
    },
    {
      "bufferView": 0,
      "byteOffset": 43044,
      "componentType": 5125,
      "count": 3810,
      "type": "SCALAR"
    },
    {
      "bufferView": 2,
      "byteOffset": 178800,
      "componentType": 5126,
      "count": 278,
      "max": [
        -0.9625142216682434,
        2.220146417617798,
        -0.4650402069091797
      ],
      "min": [
        -4.141197204589844,
        -2.375267744064331,
        -5.04884147644043
      ],
      "type": "VEC3"
    },
    {
      "bufferView": 2,
      "byteOffset": 182136,
      "componentType": 5126,
      "count": 278,
      "max": [
        0.999999463558197,
        1.0,
        1.0
      ],
      "min": [
        -1.0,
        -1.0,
        -1.0
      ],
      "type": "VEC3"
    },
    {
      "bufferView": 1,
      "byteOffset": 59600,
      "componentType": 5126,
      "count": 278,
      "max": [
        1.0,
        1.0
      ],
      "min": [
        0.0,
        0.0
      ],
      "type": "VEC2"
    },
    {
      "bufferView": 0,
      "byteOffset": 58284,
      "componentType": 5125,
      "count": 426,
      "type": "SCALAR"
    },
    {
      "bufferView": 2,
      "byteOffset": 185472,
      "componentType": 5126,
      "count": 672,
      "max": [
        -0.45710289478302,
        2.213540554046631,
        -1.0357937812805176
      ],
      "min": [
        -2.4956445693969727,
        -2.371718168258667,
        -5.771441459655762
      ],
      "type": "VEC3"
    },
    {
      "bufferView": 2,
      "byteOffset": 193536,
      "componentType": 5126,
      "count": 672,
      "max": [
        1.0,
        1.0,
        1.0
      ],
      "min": [
        -1.0,
        -1.0,
        -1.0
      ],
      "type": "VEC3"
    },
    {
      "bufferView": 1,
      "byteOffset": 61824,
      "componentType": 5126,
      "count": 672,
      "max": [
        0.625,
        0.7090909481048584
      ],
      "min": [
        0.5416666269302368,
        0.6674241423606873
      ],
      "type": "VEC2"
    },
    {
      "bufferView": 0,
      "byteOffset": 59988,
      "componentType": 5125,
      "count": 1260,
      "type": "SCALAR"
    },
    {
      "bufferView": 2,
      "byteOffset": 201600,
      "componentType": 5126,
      "count": 3341,
      "max": [
        0.4971432685852051,
        2.7606935501098633,
        1.0507161617279053
      ],
      "min": [
        -4.937534809112549,
        -3.740401029586792,
        -6.915754318237305
      ],
      "type": "VEC3"
    },
    {
      "bufferView": 2,
      "byteOffset": 241692,
      "componentType": 5126,
      "count": 3341,
      "max": [
        1.0,
        1.0,
        1.0
      ],
      "min": [
        -1.0,
        -1.0,
        -1.0
      ],
      "type": "VEC3"
    },
    {
      "bufferView": 1,
      "byteOffset": 67200,
      "componentType": 5126,
      "count": 3341,
      "max": [
        1.0,
        1.0000001192092896
      ],
      "min": [
        0.0,
        0.0
      ],
      "type": "VEC2"
    },
    {
      "bufferView": 0,
      "byteOffset": 65028,
      "componentType": 5125,
      "count": 6174,
      "type": "SCALAR"
    }
  ],
  "asset": {
    "extras": {
      "author": "MZA3DDesign (https://sketchfab.com/aabid4567890)",
      "license": "CC-BY-4.0 (http://creativecommons.org/licenses/by/4.0/)",
      "source": "https://sketchfab.com/3d-models/wooden-minimalist-house-3d-object-e842fd2d50734e93856c900cfe751e28",
      "title": "Wooden Minimalist House 3D Object"
    },
    "generator": "Sketchfab-16.16.0",
    "version": "2.0"
  },
  "bufferViews": [
    {
      "buffer": 0,
      "byteLength": 89724,
      "name": "floatBufferViews",
      "target": 34963
    },
    {
      "buffer": 0,
      "byteLength": 93928,
      "byteOffset": 89724,
      "byteStride": 8,
      "name": "floatBufferViews",
      "target": 34962
    },
    {
      "buffer": 0,
      "byteLength": 281784,
      "byteOffset": 183652,
      "byteStride": 12,
      "name": "floatBufferViews",
      "target": 34962
    }
  ],
  "buffers": [
    {
      "byteLength": 465436,
      "uri": "scene.bin"
    }
  ],
  "extensionsUsed": [
    "KHR_materials_specular"
  ],
  "materials": [
    {
      "doubleSided": true,
      "name": "Material.003",
      "pbrMetallicRoughness": {
        "baseColorFactor": [
          0.603814,
          0.185347,
          0.0588703,
          1.0
        ],
        "metallicFactor": 0.0,
        "roughnessFactor": 0.940703621462236
      }
    },
    {
      "doubleSided": true,
      "name": "Material.005",
      "pbrMetallicRoughness": {
        "baseColorFactor": [
          0.8,
          0.586796,
          0.323496,
          1.0
        ],
        "metallicFactor": 0.0,
        "roughnessFactor": 0.8629037854462862
      }
    },
    {
      "doubleSided": true,
      "name": "Material.006",
      "pbrMetallicRoughness": {
        "baseColorFactor": [
          0.00807549,
          0.00807549,
          0.00807549,
          1.0
        ],
        "metallicFactor": 0.0,
        "roughnessFactor": 0.998194265540838
      }
    },
    {
      "doubleSided": true,
      "extensions": {
        "KHR_materials_specular": {
          "specularColorFactor": [
            1.0,
            1.0,
            1.0
          ],
          "specularFactor": 0.2496194824961948
        }
      },
      "name": "Material.004",
      "pbrMetallicRoughness": {
        "baseColorFactor": [
          0.07149847734860362,
          0.07149847734860362,
          0.07149847734860362,
          1.0
        ],
        "roughnessFactor": 0.8040408205773457
      }
    },
    {
      "doubleSided": true,
      "name": "Material",
      "pbrMetallicRoughness": {
        "baseColorFactor": [
          0.54885,
          0.326995,
          0.182897,
          1.0
        ],
        "metallicFactor": 0.0,
        "roughnessFactor": 0.9108979741258222
      }
    },
    {
      "doubleSided": true,
      "name": "Material.001",
      "pbrMetallicRoughness": {
        "baseColorFactor": [
          0.0,
          0.0,
          0.0,
          1.0
        ],
        "metallicFactor": 0.0
      }
    }
  ],
  "meshes": [
    {
      "name": "house_Material.003_0",
      "primitives": [
        {
          "attributes": {
            "NORMAL": 1,
            "POSITION": 0,
            "TEXCOORD_0": 2
          },
          "indices": 3,
          "material": 0,
          "mode": 4
        }
      ]
    },
    {
      "name": "house_Material.005_0",
      "primitives": [
        {
          "attributes": {
            "NORMAL": 5,
            "POSITION": 4,
            "TEXCOORD_0": 6
          },
          "indices": 7,
          "material": 1,
          "mode": 4
        }
      ]
    },
    {
      "name": "house_Material.006_0",
      "primitives": [
        {
          "attributes": {
            "NORMAL": 9,
            "POSITION": 8,
            "TEXCOORD_0": 10
          },
          "indices": 11,
          "material": 2,
          "mode": 4
        }
      ]
    },
    {
      "name": "house_Material.004_0",
      "primitives": [
        {
          "attributes": {
            "NORMAL": 13,
            "POSITION": 12,
            "TEXCOORD_0": 14
          },
          "indices": 15,
          "material": 3,
          "mode": 4
        }
      ]
    },
    {
      "name": "house_Material_0",
      "primitives": [
        {
          "attributes": {
            "NORMAL": 17,
            "POSITION": 16,
            "TEXCOORD_0": 18
          },
          "indices": 19,
          "material": 4,
          "mode": 4
        }
      ]
    },
    {
      "name": "house_Material.001_0",
      "primitives": [
        {
          "attributes": {
            "NORMAL": 21,
            "POSITION": 20,
            "TEXCOORD_0": 22
          },
          "indices": 23,
          "material": 5,
          "mode": 4
        }
      ]
    }
  ],
  "nodes": [
    {
      "children": [
        1
      ],
      "matrix": [
        3.3830808256736056e-16,
        -1.268655309627602e-16,
        0.761802077293396,
        0.0,
        0.005590632914647842,
        -0.7617815533555188,
        -8.457246341216269e-17,
        0.0,
        0.7617815533555188,
        0.005590632914647842,
        -3.793552230114668e-16,
        0.0,
        0.0,
        0.0,
        0.0,
        1.0
      ],
      "name": "Sketchfab_model"
    },
    {
      "children": [
        2
      ],
      "matrix": [
        0.009999999776482582,
        0.0,
        0.0,
        0.0,
        0.0,
        0.0,
        0.009999999776482582,
        0.0,
        0.0,
        -0.009999999776482582,
        0.0,
        0.0,
        0.0,
        0.0,
        0.0,
        1.0
      ],
      "name": "352aa41ff6f04317943425318f78b230.fbx"
    },
    {
      "children": [
        3
      ],
      "name": "RootNode"
    },
    {
      "children": [
        4,
        5,
        6,
        7,
        8,
        9
      ],
      "matrix": [
        1.9470718870540082e-05,
        0.0,
        -99.99999999999811,
        0.0,
        0.0,
        100.0,
        0.0,
        0.0,
        99.99999999999811,
        0.0,
        1.9470718870540082e-05,
        0.0,
        338.2001647949219,
        18.829368591308594,
        163.78123474121094,
        1.0
      ],
      "name": "house"
    },
    {
      "mesh": 0,
      "name": "house_Material.003_0"
    },
    {
      "mesh": 1,
      "name": "house_Material.005_0"
    },
    {
      "mesh": 2,
      "name": "house_Material.006_0"
    },
    {
      "mesh": 3,
      "name": "house_Material.004_0"
    },
    {
      "mesh": 4,
      "name": "house_Material_0"
    },
    {
      "mesh": 5,
      "name": "house_Material.001_0"
    }
  ],
  "scene": 0,
  "scenes": [
    {
      "name": "Sketchfab_Scene",
      "nodes": [
        0
      ]
    }
  ]
}
