<svg xmlns="http://www.w3.org/2000/svg" version="1.1" xmlns:xlink="http://www.w3.org/1999/xlink" xmlns:svgjs="http://svgjs.dev/svgjs" width="1500" height="1500" viewBox="0 0 1500 1500"><g transform="matrix(1,0,0,1,-0.323615160350073,-0.3236151603499593)"><svg viewBox="0 0 343 343" data-background-color="#010536" preserveAspectRatio="xMidYMid meet" height="1500" width="1500" xmlns="http://www.w3.org/2000/svg" xmlns:xlink="http://www.w3.org/1999/xlink"><g id="tight-bounds" transform="matrix(1,0,0,1,0.0740000000000407,0.07400000000001228)"><svg viewBox="0 0 342.85155851775386 342.85155851775386" height="342.85155851775386" width="342.85155851775386"><g><svg></svg></g><g><svg viewBox="0 0 342.85155851775386 342.85155851775386" height="342.85155851775386" width="342.85155851775386"><g><path d="M0 171.426c0-94.676 76.75-171.426 171.426-171.426 94.676 0 171.426 76.75 171.426 171.426 0 94.676-76.75 171.426-171.426 171.426-94.676 0-171.426-76.75-171.426-171.426zM171.426 340.756c93.518 0 169.33-75.812 169.33-169.33 0-93.518-75.812-169.33-169.33-169.33-93.518 0-169.33 75.812-169.33 169.33 0 93.518 75.812 169.33 169.33 169.33z" data-fill-palette-color="tertiary" fill="#fbfbf8" stroke="transparent"></path><ellipse rx="164.56874808852186" ry="164.56874808852186" cx="171.42577925887693" cy="171.42577925887693" fill="#fbfbf8" stroke="transparent" stroke-width="0" fill-opacity="1" data-fill-palette-color="tertiary"></ellipse></g><g transform="matrix(1,0,0,1,64.84655864529837,119.27602808329743)"><svg viewBox="0 0 213.1584412271571 104.299502351159" height="104.299502351159" width="213.1584412271571"><g><svg viewBox="0 0 213.1584412271571 104.299502351159" height="104.299502351159" width="213.1584412271571"><g><svg viewBox="0 0 213.15844122715714 104.29950235115902" height="104.299502351159" width="213.1584412271571"><g transform="matrix(1,0,0,1,0,62.81629268652564)"><svg viewBox="0 0 213.15844122715714 41.48320966463337" height="41.48320966463337" width="213.15844122715714"><g id="textblocktransform"><svg viewBox="0 0 213.15844122715714 41.48320966463337" height="41.48320966463337" width="213.15844122715714" id="textblock"><g><svg viewBox="0 0 213.15844122715714 23.240384155959603" height="23.240384155959603" width="213.15844122715714"><g transform="matrix(1,0,0,1,0,0)"><svg width="213.15844122715714" viewBox="3.95 -32.75 306.77000000000004 33.45" height="23.240384155959603" data-palette-color="#010536"><path d="M21.75-7.9L21.75-7.9Q21.4-7.65 20.83-7.45 20.25-7.25 19.55-7.25L19.55-7.25Q18.75-7.25 18.13-7.5 17.5-7.75 17.25-8.3L17.25-8.3Q14.6-13.9 12.63-18.55 10.65-23.2 9.45-26.25L9.45-26.25 9.25-26.25Q9.1-22.5 8.93-19.25 8.75-16 8.55-12.98 8.35-9.95 8.18-6.78 8-3.6 7.75 0L7.75 0Q7.45 0.1 6.98 0.2 6.5 0.3 5.95 0.3L5.95 0.3Q4.85 0.3 4.4-0.18 3.95-0.65 3.95-1.45L3.95-1.45Q3.95-2.05 4.08-4.23 4.2-6.4 4.38-9.55 4.55-12.7 4.8-16.28 5.05-19.85 5.33-23.33 5.6-26.8 5.85-29.6L5.85-29.6Q6.25-29.95 7-30.25 7.75-30.55 8.7-30.55L8.7-30.55Q9.85-30.55 10.65-30.1 11.45-29.65 11.9-28.7L11.9-28.7Q13.2-26.15 14.5-23.15 15.8-20.15 17.05-17.15 18.3-14.15 19.45-11.5L19.45-11.5 19.65-11.5Q21.85-16.8 24.03-21.7 26.2-26.6 27.7-30.05L27.7-30.05Q28.15-30.3 28.85-30.43 29.55-30.55 30.15-30.55L30.15-30.55Q31.3-30.55 31.98-30.18 32.65-29.8 32.85-28.95L32.85-28.95Q33.05-28.1 33.3-26.05 33.55-24 33.8-21.23 34.05-18.45 34.27-15.4 34.5-12.35 34.7-9.4 34.9-6.45 35.08-4.08 35.25-1.7 35.3-0.3L35.3-0.3Q34.85 0 34.35 0.15 33.85 0.3 33.2 0.3L33.2 0.3Q32.45 0.3 31.88-0.08 31.3-0.45 31.2-1.45L31.2-1.45Q30.9-6.3 30.63-11.03 30.35-15.75 30.15-19.7 29.95-23.65 29.8-26.15L29.8-26.15 29.6-26.15Q28.5-23.4 26.6-19.07 24.7-14.75 21.75-7.9ZM61-11.35L44.2-9 44-12.15 59.1-14.2Q58.9-16.95 57.2-18.73 55.5-20.5 52.5-20.5L52.5-20.5Q49.4-20.5 47.37-18.28 45.35-16.05 45.35-11.9L45.35-11.9 45.35-10.8Q45.7-6.8 47.97-4.73 50.25-2.65 54.2-2.65L54.2-2.65Q56.3-2.65 58-3.35 59.7-4.05 60.7-4.85L60.7-4.85Q61.25-4.5 61.57-4.03 61.9-3.55 61.9-2.95L61.9-2.95Q61.9-2 60.82-1.18 59.75-0.35 57.97 0.15 56.2 0.65 54 0.65L54 0.65Q50.15 0.65 47.32-0.75 44.5-2.15 42.97-4.93 41.45-7.7 41.45-11.7L41.45-11.7Q41.45-14.55 42.27-16.78 43.1-19 44.57-20.55 46.05-22.1 48.1-22.93 50.15-23.75 52.55-23.75L52.55-23.75Q55.6-23.75 57.92-22.45 60.25-21.15 61.57-18.82 62.9-16.5 62.9-13.5L62.9-13.5Q62.9-12.4 62.4-11.93 61.9-11.45 61-11.35L61-11.35ZM84.65-19.15L74.85-10.55 72.35-12.5 83.75-23.55Q84.95-23.5 85.62-22.98 86.3-22.45 86.3-21.6L86.3-21.6Q86.3-20.9 85.87-20.35 85.45-19.8 84.65-19.15L84.65-19.15ZM82.9-1.15L72.25-11.85 75.05-13.5 87.75-2.1Q87.65-1 87.07-0.35 86.5 0.3 85.55 0.3L85.55 0.3Q84.8 0.3 84.17-0.1 83.55-0.5 82.9-1.15L82.9-1.15ZM68.8-1.55L68.8-13.4 72.8-12.8 72.8-0.1Q72.55 0 72.05 0.13 71.55 0.25 70.95 0.25L70.95 0.25Q69.9 0.25 69.35-0.18 68.8-0.6 68.8-1.55L68.8-1.55ZM72.8-30.95L72.8-10.85 68.8-11.45 68.8-32.4Q69.05-32.5 69.57-32.63 70.1-32.75 70.7-32.75L70.7-32.75Q71.75-32.75 72.27-32.33 72.8-31.9 72.8-30.95L72.8-30.95ZM111.29-11.35L94.49-9 94.29-12.15 109.39-14.2Q109.19-16.95 107.49-18.73 105.79-20.5 102.79-20.5L102.79-20.5Q99.69-20.5 97.67-18.28 95.64-16.05 95.64-11.9L95.64-11.9 95.64-10.8Q95.99-6.8 98.27-4.73 100.54-2.65 104.49-2.65L104.49-2.65Q106.59-2.65 108.29-3.35 109.99-4.05 110.99-4.85L110.99-4.85Q111.54-4.5 111.87-4.03 112.19-3.55 112.19-2.95L112.19-2.95Q112.19-2 111.12-1.18 110.04-0.35 108.27 0.15 106.49 0.65 104.29 0.65L104.29 0.65Q100.44 0.65 97.62-0.75 94.79-2.15 93.27-4.93 91.74-7.7 91.74-11.7L91.74-11.7Q91.74-14.55 92.57-16.78 93.39-19 94.87-20.55 96.34-22.1 98.39-22.93 100.44-23.75 102.84-23.75L102.84-23.75Q105.89-23.75 108.22-22.45 110.54-21.15 111.87-18.82 113.19-16.5 113.19-13.5L113.19-13.5Q113.19-12.4 112.69-11.93 112.19-11.45 111.29-11.35L111.29-11.35ZM119.39-1.55L119.39-13.2 123.39-12.6 123.39-0.1Q123.14 0 122.64 0.13 122.14 0.25 121.54 0.25L121.54 0.25Q120.49 0.25 119.94-0.18 119.39-0.6 119.39-1.55L119.39-1.55ZM123.39-30.95L123.39-10.7 119.39-11.25 119.39-32.4Q119.64-32.5 120.17-32.63 120.69-32.75 121.24-32.75L121.24-32.75Q122.34-32.75 122.87-32.33 123.39-31.9 123.39-30.95L123.39-30.95ZM131.69-1.55L131.69-13.2 135.69-12.6 135.69-0.1Q135.44 0 134.94 0.13 134.44 0.25 133.84 0.25L133.84 0.25Q132.79 0.25 132.24-0.18 131.69-0.6 131.69-1.55L131.69-1.55ZM135.69-30.95L135.69-10.7 131.69-11.25 131.69-32.4Q131.94-32.5 132.46-32.63 132.99-32.75 133.54-32.75L133.54-32.75Q134.64-32.75 135.16-32.33 135.69-31.9 135.69-30.95L135.69-30.95ZM161.84-11.35L145.04-9 144.84-12.15 159.94-14.2Q159.74-16.95 158.04-18.73 156.34-20.5 153.34-20.5L153.34-20.5Q150.24-20.5 148.21-18.28 146.19-16.05 146.19-11.9L146.19-11.9 146.19-10.8Q146.54-6.8 148.81-4.73 151.09-2.65 155.04-2.65L155.04-2.65Q157.14-2.65 158.84-3.35 160.54-4.05 161.54-4.85L161.54-4.85Q162.09-4.5 162.41-4.03 162.74-3.55 162.74-2.95L162.74-2.95Q162.74-2 161.66-1.18 160.59-0.35 158.81 0.15 157.04 0.65 154.84 0.65L154.84 0.65Q150.99 0.65 148.16-0.75 145.34-2.15 143.81-4.93 142.29-7.7 142.29-11.7L142.29-11.7Q142.29-14.55 143.11-16.78 143.94-19 145.41-20.55 146.89-22.1 148.94-22.93 150.99-23.75 153.39-23.75L153.39-23.75Q156.44-23.75 158.76-22.45 161.09-21.15 162.41-18.82 163.74-16.5 163.74-13.5L163.74-13.5Q163.74-12.4 163.24-11.93 162.74-11.45 161.84-11.35L161.84-11.35ZM180.23-2.2L180.23-18.3 184.28-18.3 184.28-0.4Q184.08-0.35 183.53-0.18 182.98 0 182.43 0L182.43 0Q181.43 0 180.83-0.63 180.23-1.25 180.23-2.2L180.23-2.2ZM184.28-30L184.28-12.4 180.23-12.45 180.23-28.2Q180.23-29.2 180.83-29.8 181.43-30.4 182.43-30.4L182.43-30.4Q182.98-30.4 183.53-30.25 184.08-30.1 184.28-30L184.28-30ZM196.38-13.9L182.43-13.9 182.43-17.3 197.48-17.3Q197.63-17.1 197.78-16.65 197.93-16.2 197.93-15.7L197.93-15.7Q197.93-14.9 197.53-14.4 197.13-13.9 196.38-13.9L196.38-13.9ZM198.18 0L182.43 0 182.43-3.4 199.28-3.4Q199.43-3.2 199.58-2.78 199.73-2.35 199.73-1.8L199.73-1.8Q199.73-1 199.33-0.5 198.93 0 198.18 0L198.18 0ZM197.93-26.95L182.43-26.95 182.43-30.4 199.03-30.4Q199.18-30.2 199.33-29.75 199.48-29.3 199.48-28.8L199.48-28.8Q199.48-28 199.08-27.48 198.68-26.95 197.93-26.95L197.93-26.95ZM222.38-6.15L222.38-6.15Q222.38-2.95 220.03-1.15 217.68 0.65 213.23 0.65L213.23 0.65Q209.43 0.65 207.03-0.53 204.63-1.7 204.63-3.1L204.63-3.1Q204.63-3.7 204.95-4.28 205.28-4.85 205.93-5.2L205.93-5.2Q207.28-4.25 209.08-3.45 210.88-2.65 213.18-2.65L213.18-2.65Q218.38-2.65 218.38-6.15L218.38-6.15Q218.38-7.6 217.5-8.53 216.63-9.45 214.93-9.85L214.93-9.85 210.78-10.95Q207.73-11.7 206.33-13.28 204.93-14.85 204.93-17.2L204.93-17.2Q204.93-19.85 207.08-21.8 209.23-23.75 213.63-23.75L213.63-23.75Q215.98-23.75 217.73-23.28 219.48-22.8 220.45-22.03 221.43-21.25 221.43-20.35L221.43-20.35Q221.43-19.7 221.1-19.2 220.78-18.7 220.23-18.45L220.23-18.45Q219.63-18.85 218.7-19.33 217.78-19.8 216.53-20.13 215.28-20.45 213.78-20.45L213.78-20.45Q211.58-20.45 210.23-19.6 208.88-18.75 208.88-17.2L208.88-17.2Q208.88-16.1 209.65-15.28 210.43-14.45 212.13-14.05L212.13-14.05 215.58-13.2Q218.98-12.4 220.68-10.68 222.38-8.95 222.38-6.15ZM228.48-6.05L228.48-13.2 232.48-13.2 232.48-6.3Q232.48-4.3 233.63-3.48 234.78-2.65 236.78-2.65L236.78-2.65Q237.63-2.65 238.68-2.95 239.73-3.25 240.43-3.65L240.43-3.65Q240.73-3.35 240.98-2.9 241.23-2.45 241.23-1.85L241.23-1.85Q241.23-0.75 239.93-0.05 238.63 0.65 236.33 0.65L236.33 0.65Q232.83 0.65 230.65-0.9 228.48-2.45 228.48-6.05L228.48-6.05ZM239.63-19.3L230.53-19.3 230.53-22.6 240.68-22.6Q240.83-22.4 240.98-21.95 241.13-21.5 241.13-21L241.13-21Q241.13-20.2 240.73-19.75 240.33-19.3 239.63-19.3L239.63-19.3ZM232.48-28.35L232.48-11.7 228.48-11.7 228.48-29.8Q228.73-29.9 229.25-30.03 229.78-30.15 230.38-30.15L230.38-30.15Q231.43-30.15 231.95-29.73 232.48-29.3 232.48-28.35L232.48-28.35ZM255.27 0.7L255.27 0.7Q250.57 0.7 248-1.15 245.42-3 245.42-6.5L245.42-6.5Q245.42-9.75 247.6-11.48 249.77-13.2 253.62-13.55L253.62-13.55 260.72-14.25 260.72-15.65Q260.72-18.15 259.22-19.3 257.72-20.45 255.17-20.45L255.17-20.45Q253.12-20.45 251.25-19.85 249.37-19.25 247.92-18.5L247.92-18.5Q247.52-18.85 247.2-19.33 246.87-19.8 246.87-20.3L246.87-20.3Q246.87-21.6 248.32-22.3L248.32-22.3Q249.67-23 251.45-23.38 253.22-23.75 255.22-23.75L255.22-23.75Q259.57-23.75 262.12-21.8 264.67-19.85 264.67-15.65L264.67-15.65 264.67-3.8Q264.67-2.7 264.25-2.13 263.82-1.55 262.97-1.05L262.97-1.05Q261.77-0.4 259.77 0.15 257.77 0.7 255.27 0.7ZM255.27-2.6L255.27-2.6Q257.37-2.6 258.75-3.03 260.12-3.45 260.72-3.85L260.72-3.85 260.72-11.1 254.52-10.45Q251.92-10.25 250.67-9.3 249.42-8.35 249.42-6.55L249.42-6.55Q249.42-4.7 250.9-3.65 252.37-2.6 255.27-2.6ZM272.02-6.05L272.02-13.2 276.02-13.2 276.02-6.3Q276.02-4.3 277.17-3.48 278.32-2.65 280.32-2.65L280.32-2.65Q281.17-2.65 282.22-2.95 283.27-3.25 283.97-3.65L283.97-3.65Q284.27-3.35 284.52-2.9 284.77-2.45 284.77-1.85L284.77-1.85Q284.77-0.75 283.47-0.05 282.17 0.65 279.87 0.65L279.87 0.65Q276.37 0.65 274.2-0.9 272.02-2.45 272.02-6.05L272.02-6.05ZM283.17-19.3L274.07-19.3 274.07-22.6 284.22-22.6Q284.37-22.4 284.52-21.95 284.67-21.5 284.67-21L284.67-21Q284.67-20.2 284.27-19.75 283.87-19.3 283.17-19.3L283.17-19.3ZM276.02-28.35L276.02-11.7 272.02-11.7 272.02-29.8Q272.27-29.9 272.8-30.03 273.32-30.15 273.92-30.15L273.92-30.15Q274.97-30.15 275.5-29.73 276.02-29.3 276.02-28.35L276.02-28.35ZM308.82-11.35L292.02-9 291.82-12.15 306.92-14.2Q306.72-16.95 305.02-18.73 303.32-20.5 300.32-20.5L300.32-20.5Q297.22-20.5 295.19-18.28 293.17-16.05 293.17-11.9L293.17-11.9 293.17-10.8Q293.52-6.8 295.79-4.73 298.07-2.65 302.02-2.65L302.02-2.65Q304.12-2.65 305.82-3.35 307.52-4.05 308.52-4.85L308.52-4.85Q309.07-4.5 309.39-4.03 309.72-3.55 309.72-2.95L309.72-2.95Q309.72-2 308.64-1.18 307.57-0.35 305.79 0.15 304.02 0.65 301.82 0.65L301.82 0.65Q297.97 0.65 295.14-0.75 292.32-2.15 290.79-4.93 289.27-7.7 289.27-11.7L289.27-11.7Q289.27-14.55 290.09-16.78 290.92-19 292.39-20.55 293.87-22.1 295.92-22.93 297.97-23.75 300.37-23.75L300.37-23.75Q303.42-23.75 305.74-22.45 308.07-21.15 309.39-18.82 310.72-16.5 310.72-13.5L310.72-13.5Q310.72-12.4 310.22-11.93 309.72-11.45 308.82-11.35L308.82-11.35Z" opacity="1" transform="matrix(1,0,0,1,0,0)" fill="#010536" class="wordmark-text-0" data-fill-palette-color="quaternary" id="text-0"></path></svg></g></svg></g><g transform="matrix(1,0,0,1,0,28.72688108596192)"><svg viewBox="0 0 213.15844122715714 12.756328578671448" height="12.756328578671448" width="213.15844122715714"><g transform="matrix(1,0,0,1,0,0)"><svg width="213.15844122715714" viewBox="4.4 -32.75 558.9 33.45" height="12.756328578671448" data-palette-color="#010536"><path d="M16.2 0.65L16.2 0.65 16.2 0.65Q12.45 0.65 9.8-0.73 7.15-2.1 5.78-4.63 4.4-7.15 4.4-10.5L4.4-10.5 4.4-14.6 8.45-14.6 8.45-10.85Q8.45-6.85 10.68-4.83 12.9-2.8 16.2-2.8L16.2-2.8Q19.5-2.8 21.73-4.83 23.95-6.85 23.95-10.85L23.95-10.85 23.95-14.6 28.05-14.6 28.05-10.5Q28.05-7.15 26.68-4.63 25.3-2.1 22.65-0.73 20 0.65 16.2 0.65ZM8.45-28.8L8.45-12.55 4.4-12.55 4.4-30.3Q4.65-30.4 5.18-30.53 5.7-30.65 6.3-30.65L6.3-30.65Q7.4-30.65 7.93-30.23 8.45-29.8 8.45-28.8L8.45-28.8ZM28.05-28.8L28.05-12.55 23.95-12.55 23.95-30.3Q24.2-30.4 24.73-30.53 25.25-30.65 25.85-30.65L25.85-30.65Q26.95-30.65 27.5-30.23 28.05-29.8 28.05-28.8L28.05-28.8ZM56.2-15.25L56.2-15.25 56.2-10.15 52.2-10.15 52.2-15.05Q52.2-17.85 50.62-19.15 49.05-20.45 46.4-20.45L46.4-20.45Q44.4-20.45 42.85-19.95 41.3-19.45 40.2-18.8L40.2-18.8 40.2-10.15 36.2-10.15 36.2-18.6Q36.2-19.65 36.62-20.33 37.05-21 38.1-21.65L38.1-21.65Q39.4-22.4 41.55-23.08 43.7-23.75 46.4-23.75L46.4-23.75Q50.95-23.75 53.57-21.68 56.2-19.6 56.2-15.25ZM36.2-1.55L36.2-12.9 40.2-12.9 40.2-0.1Q39.95 0 39.45 0.13 38.95 0.25 38.35 0.25L38.35 0.25Q37.3 0.25 36.75-0.18 36.2-0.6 36.2-1.55L36.2-1.55ZM52.2-1.55L52.2-12.9 56.2-12.9 56.2-0.1Q55.95 0 55.42 0.13 54.9 0.25 54.35 0.25L54.35 0.25Q53.25 0.25 52.72-0.18 52.2-0.6 52.2-1.55L52.2-1.55ZM64.1-1.55L64.1-13.2 68.1-12.6 68.1-0.1Q67.85 0 67.35 0.13 66.85 0.25 66.25 0.25L66.25 0.25Q65.2 0.25 64.65-0.18 64.1-0.6 64.1-1.55L64.1-1.55ZM68.1-30.95L68.1-10.7 64.1-11.25 64.1-32.4Q64.35-32.5 64.87-32.63 65.4-32.75 65.95-32.75L65.95-32.75Q67.05-32.75 67.57-32.33 68.1-31.9 68.1-30.95L68.1-30.95ZM97.44-11.55L97.44-11.55 97.44-11.55Q97.44-7.85 96.04-5.1 94.64-2.35 92.09-0.85 89.54 0.65 86.09 0.65L86.09 0.65Q82.64 0.65 80.07-0.85 77.49-2.35 76.09-5.1 74.69-7.85 74.69-11.55L74.69-11.55Q74.69-15.3 76.12-18.03 77.54-20.75 80.12-22.25 82.69-23.75 86.09-23.75L86.09-23.75Q89.49-23.75 92.04-22.25 94.59-20.75 96.02-18.03 97.44-15.3 97.44-11.55ZM86.09-20.45L86.09-20.45 86.09-20.45Q82.74-20.45 80.77-18.07 78.79-15.7 78.79-11.55L78.79-11.55Q78.79-7.35 80.72-5 82.64-2.65 86.09-2.65L86.09-2.65Q89.49-2.65 91.42-5.03 93.34-7.4 93.34-11.55L93.34-11.55Q93.34-15.7 91.42-18.07 89.49-20.45 86.09-20.45ZM114.34-20.4L114.34-20.4 114.34-20.4Q110.94-20.4 108.69-18.1 106.44-15.8 106.44-11.5L106.44-11.5Q106.44-7.25 108.62-4.95 110.79-2.65 114.34-2.65L114.34-2.65Q116.44-2.65 117.84-3.23 119.24-3.8 120.34-4.55L120.34-4.55Q120.89-4.25 121.24-3.8 121.59-3.35 121.59-2.7L121.59-2.7Q121.59-1.3 119.52-0.33 117.44 0.65 114.34 0.65L114.34 0.65Q110.89 0.65 108.17-0.68 105.44-2 103.89-4.7 102.34-7.4 102.34-11.5L102.34-11.5Q102.34-15.55 103.94-18.28 105.54-21 108.27-22.38 110.99-23.75 114.24-23.75L114.24-23.75Q117.34-23.75 119.37-22.7 121.39-21.65 121.39-20.3L121.39-20.3Q121.39-19.7 121.04-19.25 120.69-18.8 120.14-18.55L120.14-18.55Q119.04-19.3 117.72-19.85 116.39-20.4 114.34-20.4ZM143.49-19.15L133.69-10.55 131.19-12.5 142.59-23.55Q143.79-23.5 144.46-22.98 145.14-22.45 145.14-21.6L145.14-21.6Q145.14-20.9 144.71-20.35 144.29-19.8 143.49-19.15L143.49-19.15ZM141.74-1.15L131.09-11.85 133.89-13.5 146.59-2.1Q146.49-1 145.91-0.35 145.34 0.3 144.39 0.3L144.39 0.3Q143.64 0.3 143.01-0.1 142.39-0.5 141.74-1.15L141.74-1.15ZM127.64-1.55L127.64-13.4 131.64-12.8 131.64-0.1Q131.39 0 130.89 0.13 130.39 0.25 129.79 0.25L129.79 0.25Q128.74 0.25 128.19-0.18 127.64-0.6 127.64-1.55L127.64-1.55ZM131.64-30.95L131.64-10.85 127.64-11.45 127.64-32.4Q127.89-32.5 128.41-32.63 128.94-32.75 129.54-32.75L129.54-32.75Q130.59-32.75 131.11-32.33 131.64-31.9 131.64-30.95L131.64-30.95ZM178.83-10.9L178.83-10.9 175.28-10.9Q173.88-13 172.36-15.33 170.83-17.65 169.36-20.05 167.88-22.45 166.56-24.78 165.23-27.1 164.18-29.1L164.18-29.1Q164.38-29.65 164.93-30.18 165.48-30.7 166.38-30.7L166.38-30.7Q167.33-30.7 167.86-30.2 168.38-29.7 168.93-28.7L168.93-28.7Q169.58-27.55 170.41-26.13 171.23-24.7 172.13-23.13 173.03-21.55 173.93-20 174.83-18.45 175.61-17.1 176.38-15.75 176.98-14.75L176.98-14.75 177.18-14.75Q178.93-17.65 180.38-20.25 181.83-22.85 183.18-25.35 184.53-27.85 185.83-30.35L185.83-30.35Q186.13-30.55 186.58-30.63 187.03-30.7 187.38-30.7L187.38-30.7Q188.33-30.7 188.81-30.25 189.28-29.8 189.28-29L189.28-29Q189.28-28.5 188.51-26.88 187.73-25.25 186.33-22.83 184.93-20.4 183.03-17.35 181.13-14.3 178.83-10.9ZM175.03-1.6L175.03-12.85 179.08-12.85 179.08-0.1Q178.83 0 178.31 0.13 177.78 0.25 177.23 0.25L177.23 0.25Q176.13 0.25 175.58-0.2 175.03-0.65 175.03-1.6L175.03-1.6ZM215.83-11.55L215.83-11.55 215.83-11.55Q215.83-7.85 214.43-5.1 213.03-2.35 210.48-0.85 207.93 0.65 204.48 0.65L204.48 0.65Q201.03 0.65 198.46-0.85 195.88-2.35 194.48-5.1 193.08-7.85 193.08-11.55L193.08-11.55Q193.08-15.3 194.51-18.03 195.93-20.75 198.51-22.25 201.08-23.75 204.48-23.75L204.48-23.75Q207.88-23.75 210.43-22.25 212.98-20.75 214.41-18.03 215.83-15.3 215.83-11.55ZM204.48-20.45L204.48-20.45 204.48-20.45Q201.13-20.45 199.16-18.07 197.18-15.7 197.18-11.55L197.18-11.55Q197.18-7.35 199.11-5 201.03-2.65 204.48-2.65L204.48-2.65Q207.88-2.65 209.81-5.03 211.73-7.4 211.73-11.55L211.73-11.55Q211.73-15.7 209.81-18.07 207.88-20.45 204.48-20.45ZM222.03-8.45L222.03-8.45 222.03-13 226.03-13 226.03-8.65Q226.03-5.45 227.73-4.05 229.43-2.65 232.43-2.65L232.43-2.65Q234.43-2.65 235.83-3.08 237.23-3.5 238.03-3.95L238.03-3.95 238.03-13 242.03-13 242.03-4.1Q242.03-3.05 241.75-2.43 241.48-1.8 240.43-1.2L240.43-1.2Q239.33-0.55 237.28 0.05 235.23 0.65 232.38 0.65L232.38 0.65Q229.08 0.65 226.75-0.33 224.43-1.3 223.23-3.33 222.03-5.35 222.03-8.45ZM242.03-21.5L242.03-10.4 238.03-10.4 238.03-23Q238.28-23.1 238.8-23.23 239.33-23.35 239.88-23.35L239.88-23.35Q240.98-23.35 241.5-22.93 242.03-22.5 242.03-21.5L242.03-21.5ZM226.03-21.5L226.03-10.4 222.03-10.4 222.03-23Q222.28-23.1 222.8-23.23 223.33-23.35 223.93-23.35L223.93-23.35Q224.98-23.35 225.5-22.93 226.03-22.5 226.03-21.5L226.03-21.5ZM253.53-18.8L253.53-18.8 253.53-10.9 249.53-10.9 249.53-18.5Q249.53-19.65 249.95-20.33 250.38-21 251.38-21.65L251.38-21.65Q252.68-22.5 254.93-23.13 257.18-23.75 259.93-23.75L259.93-23.75Q263.93-23.75 263.93-21.75L263.93-21.75Q263.93-21.25 263.78-20.83 263.63-20.4 263.38-20.1L263.38-20.1Q262.88-20.2 262.08-20.3 261.28-20.4 260.48-20.4L260.48-20.4Q258.18-20.4 256.43-19.93 254.68-19.45 253.53-18.8ZM249.53-1.55L249.53-13.2 253.53-12.6 253.53-0.1Q253.28 0 252.78 0.13 252.28 0.25 251.68 0.25L251.68 0.25Q250.63 0.25 250.08-0.18 249.53-0.6 249.53-1.55L249.53-1.55ZM305.62-15.55L305.62-15.55 305.62-15.55Q305.62-9.3 302.62-6.08 299.62-2.85 293.77-2.85L293.77-2.85Q292.32-2.85 290.95-2.95 289.57-3.05 288.37-3.35L288.37-3.35 288.37-27.15Q289.37-27.35 290.57-27.45 291.77-27.55 293.32-27.55L293.32-27.55Q296.72-27.55 299.5-26.33 302.27-25.1 303.95-22.48 305.62-19.85 305.62-15.55ZM309.77-15.55L309.77-15.55 309.77-15.55Q309.77-20.7 307.7-24.1 305.62-27.5 301.95-29.23 298.27-30.95 293.37-30.95L293.37-30.95Q291.42-30.95 289.47-30.8 287.52-30.65 285.97-30.15L285.97-30.15Q285.17-29.9 284.75-29.48 284.32-29.05 284.32-28.25L284.32-28.25 284.32-2.55Q284.32-0.9 286.42-0.25L286.42-0.25Q288.22 0.3 290.25 0.43 292.27 0.55 293.82 0.55L293.82 0.55Q298.67 0.55 302.25-1.2 305.82-2.95 307.8-6.53 309.77-10.1 309.77-15.55ZM320.22-18.8L320.22-18.8 320.22-10.9 316.22-10.9 316.22-18.5Q316.22-19.65 316.64-20.33 317.07-21 318.07-21.65L318.07-21.65Q319.37-22.5 321.62-23.13 323.87-23.75 326.62-23.75L326.62-23.75Q330.62-23.75 330.62-21.75L330.62-21.75Q330.62-21.25 330.47-20.83 330.32-20.4 330.07-20.1L330.07-20.1Q329.57-20.2 328.77-20.3 327.97-20.4 327.17-20.4L327.17-20.4Q324.87-20.4 323.12-19.93 321.37-19.45 320.22-18.8ZM316.22-1.55L316.22-13.2 320.22-12.6 320.22-0.1Q319.97 0 319.47 0.13 318.97 0.25 318.37 0.25L318.37 0.25Q317.32 0.25 316.77-0.18 316.22-0.6 316.22-1.55L316.22-1.55ZM353.57-11.35L336.77-9 336.57-12.15 351.67-14.2Q351.47-16.95 349.77-18.73 348.07-20.5 345.07-20.5L345.07-20.5Q341.97-20.5 339.94-18.28 337.92-16.05 337.92-11.9L337.92-11.9 337.92-10.8Q338.27-6.8 340.54-4.73 342.82-2.65 346.77-2.65L346.77-2.65Q348.87-2.65 350.57-3.35 352.27-4.05 353.27-4.85L353.27-4.85Q353.82-4.5 354.14-4.03 354.47-3.55 354.47-2.95L354.47-2.95Q354.47-2 353.39-1.18 352.32-0.35 350.54 0.15 348.77 0.65 346.57 0.65L346.57 0.65Q342.72 0.65 339.89-0.75 337.07-2.15 335.54-4.93 334.02-7.7 334.02-11.7L334.02-11.7Q334.02-14.55 334.84-16.78 335.67-19 337.14-20.55 338.62-22.1 340.67-22.93 342.72-23.75 345.12-23.75L345.12-23.75Q348.17-23.75 350.49-22.45 352.82-21.15 354.14-18.82 355.47-16.5 355.47-13.5L355.47-13.5Q355.47-12.4 354.97-11.93 354.47-11.45 353.57-11.35L353.57-11.35ZM369.51-2.6L369.51-2.6 369.51-2.6Q371.61-2.6 372.99-3.03 374.36-3.45 374.96-3.85L374.96-3.85 374.96-11.1 368.76-10.45Q366.16-10.25 364.91-9.3 363.66-8.35 363.66-6.55L363.66-6.55Q363.66-4.7 365.14-3.65 366.61-2.6 369.51-2.6ZM369.46-23.75L369.46-23.75 369.46-23.75Q373.81-23.75 376.36-21.8 378.91-19.85 378.91-15.65L378.91-15.65 378.91-3.8Q378.91-2.7 378.49-2.13 378.06-1.55 377.21-1.05L377.21-1.05Q376.01-0.4 374.01 0.15 372.01 0.7 369.51 0.7L369.51 0.7Q364.81 0.7 362.24-1.15 359.66-3 359.66-6.5L359.66-6.5Q359.66-9.75 361.84-11.48 364.01-13.2 367.86-13.55L367.86-13.55 374.96-14.25 374.96-15.65Q374.96-18.15 373.46-19.3 371.96-20.45 369.41-20.45L369.41-20.45Q367.36-20.45 365.49-19.85 363.61-19.25 362.16-18.5L362.16-18.5Q361.76-18.85 361.44-19.33 361.11-19.8 361.11-20.3L361.11-20.3Q361.11-21.6 362.56-22.3L362.56-22.3Q363.91-23 365.69-23.38 367.46-23.75 369.46-23.75ZM404.86-16L404.86-16 404.86-10.25 400.86-10.25 400.86-15.7Q400.86-18.15 399.44-19.3 398.01-20.45 395.66-20.45L395.66-20.45Q394.11-20.45 392.66-19.95 391.21-19.45 390.21-18.8L390.21-18.8 390.21-10.25 386.21-10.25 386.21-18.6Q386.21-19.6 386.64-20.3 387.06-21 388.11-21.65L388.11-21.65Q389.46-22.5 391.54-23.13 393.61-23.75 395.71-23.75L395.71-23.75Q398.26-23.75 400.21-22.98 402.16-22.2 403.11-20.85L403.11-20.85Q403.41-20.55 403.61-20.3 403.81-20.05 404.01-19.65L404.01-19.65Q404.36-19.05 404.61-18.1 404.86-17.15 404.86-16ZM419.51-15.9L419.51-15.9 419.51-10.25 415.51-10.25 415.51-15.7Q415.51-18.15 414.11-19.3 412.71-20.45 410.36-20.45L410.36-20.45Q408.61-20.45 406.99-19.73 405.36-19 404.06-17.65L404.06-17.65 402.46-20.55Q403.76-21.85 405.86-22.8 407.96-23.75 410.66-23.75L410.66-23.75Q413.36-23.75 415.34-22.9 417.31-22.05 418.41-20.3 419.51-18.55 419.51-15.9ZM386.21-1.55L386.21-12.9 390.21-12.9 390.21-0.1Q389.96 0 389.46 0.13 388.96 0.25 388.36 0.25L388.36 0.25Q387.31 0.25 386.76-0.18 386.21-0.6 386.21-1.55L386.21-1.55ZM400.86-1.55L400.86-12.9 404.86-12.9 404.86-0.1Q404.61 0 404.09 0.13 403.56 0.25 403.01 0.25L403.01 0.25Q401.91 0.25 401.39-0.18 400.86-0.6 400.86-1.55L400.86-1.55ZM415.51-1.55L415.51-12.9 419.51-12.9 419.51-0.1Q419.26 0 418.74 0.13 418.21 0.25 417.66 0.25L417.66 0.25Q416.56 0.25 416.04-0.18 415.51-0.6 415.51-1.55L415.51-1.55ZM442.71-1.6L442.71-18.1 446.81-18.1 446.81-0.1Q446.51 0 446.01 0.13 445.51 0.25 444.91 0.25L444.91 0.25Q443.81 0.25 443.26-0.2 442.71-0.65 442.71-1.6L442.71-1.6ZM446.81-28.8L446.81-14.75 442.71-14.75 442.71-30.3Q442.96-30.4 443.48-30.53 444.01-30.65 444.61-30.65L444.61-30.65Q445.71-30.65 446.26-30.23 446.81-29.8 446.81-28.8L446.81-28.8ZM462.41-1.6L462.41-18.1 466.51-18.1 466.51-0.1Q466.21 0 465.71 0.13 465.21 0.25 464.61 0.25L464.61 0.25Q463.51 0.25 462.96-0.2 462.41-0.65 462.41-1.6L462.41-1.6ZM466.51-28.8L466.51-14.75 462.41-14.75 462.41-30.3Q462.66-30.4 463.18-30.53 463.71-30.65 464.31-30.65L464.31-30.65Q465.41-30.65 465.96-30.23 466.51-29.8 466.51-28.8L466.51-28.8ZM464.56-17.1L464.56-13.7 445.16-13.7 445.16-17.1 464.56-17.1ZM496.15-11.55L496.15-11.55 496.15-11.55Q496.15-7.85 494.75-5.1 493.35-2.35 490.8-0.85 488.25 0.65 484.8 0.65L484.8 0.65Q481.35 0.65 478.78-0.85 476.2-2.35 474.8-5.1 473.4-7.85 473.4-11.55L473.4-11.55Q473.4-15.3 474.83-18.03 476.25-20.75 478.83-22.25 481.4-23.75 484.8-23.75L484.8-23.75Q488.2-23.75 490.75-22.25 493.3-20.75 494.73-18.03 496.15-15.3 496.15-11.55ZM484.8-20.45L484.8-20.45 484.8-20.45Q481.45-20.45 479.48-18.07 477.5-15.7 477.5-11.55L477.5-11.55Q477.5-7.35 479.43-5 481.35-2.65 484.8-2.65L484.8-2.65Q488.2-2.65 490.13-5.03 492.05-7.4 492.05-11.55L492.05-11.55Q492.05-15.7 490.13-18.07 488.2-20.45 484.8-20.45ZM521-16L521-16 521-10.25 517-10.25 517-15.7Q517-18.15 515.58-19.3 514.15-20.45 511.8-20.45L511.8-20.45Q510.25-20.45 508.8-19.95 507.35-19.45 506.35-18.8L506.35-18.8 506.35-10.25 502.35-10.25 502.35-18.6Q502.35-19.6 502.78-20.3 503.2-21 504.25-21.65L504.25-21.65Q505.6-22.5 507.68-23.13 509.75-23.75 511.85-23.75L511.85-23.75Q514.4-23.75 516.35-22.98 518.3-22.2 519.25-20.85L519.25-20.85Q519.55-20.55 519.75-20.3 519.95-20.05 520.15-19.65L520.15-19.65Q520.5-19.05 520.75-18.1 521-17.15 521-16ZM535.65-15.9L535.65-15.9 535.65-10.25 531.65-10.25 531.65-15.7Q531.65-18.15 530.25-19.3 528.85-20.45 526.5-20.45L526.5-20.45Q524.75-20.45 523.13-19.73 521.5-19 520.2-17.65L520.2-17.65 518.6-20.55Q519.9-21.85 522-22.8 524.1-23.75 526.8-23.75L526.8-23.75Q529.5-23.75 531.48-22.9 533.45-22.05 534.55-20.3 535.65-18.55 535.65-15.9ZM502.35-1.55L502.35-12.9 506.35-12.9 506.35-0.1Q506.1 0 505.6 0.13 505.1 0.25 504.5 0.25L504.5 0.25Q503.45 0.25 502.9-0.18 502.35-0.6 502.35-1.55L502.35-1.55ZM517-1.55L517-12.9 521-12.9 521-0.1Q520.75 0 520.23 0.13 519.7 0.25 519.15 0.25L519.15 0.25Q518.05 0.25 517.53-0.18 517-0.6 517-1.55L517-1.55ZM531.65-1.55L531.65-12.9 535.65-12.9 535.65-0.1Q535.4 0 534.88 0.13 534.35 0.25 533.8 0.25L533.8 0.25Q532.7 0.25 532.18-0.18 531.65-0.6 531.65-1.55L531.65-1.55ZM561.4-11.35L544.6-9 544.4-12.15 559.5-14.2Q559.3-16.95 557.6-18.73 555.9-20.5 552.9-20.5L552.9-20.5Q549.8-20.5 547.77-18.28 545.75-16.05 545.75-11.9L545.75-11.9 545.75-10.8Q546.1-6.8 548.37-4.73 550.65-2.65 554.6-2.65L554.6-2.65Q556.7-2.65 558.4-3.35 560.1-4.05 561.1-4.85L561.1-4.85Q561.65-4.5 561.97-4.03 562.3-3.55 562.3-2.95L562.3-2.95Q562.3-2 561.22-1.18 560.15-0.35 558.37 0.15 556.6 0.65 554.4 0.65L554.4 0.65Q550.55 0.65 547.72-0.75 544.9-2.15 543.37-4.93 541.85-7.7 541.85-11.7L541.85-11.7Q541.85-14.55 542.67-16.78 543.5-19 544.97-20.55 546.45-22.1 548.5-22.93 550.55-23.75 552.95-23.75L552.95-23.75Q556-23.75 558.32-22.45 560.65-21.15 561.97-18.82 563.3-16.5 563.3-13.5L563.3-13.5Q563.3-12.4 562.8-11.93 562.3-11.45 561.4-11.35L561.4-11.35Z" opacity="1" transform="matrix(1,0,0,1,0,0)" fill="#010536" class="slogan-text-1" data-fill-palette-color="quaternary" id="text-1"></path></svg></g></svg></g></svg></g></svg></g><g transform="matrix(1,0,0,1,70.78811681869635,0)"><svg viewBox="0 0 71.58220758976442 57.329795756523325" height="57.329795756523325" width="71.58220758976442"><g><svg xmlns="http://www.w3.org/2000/svg" xmlns:xlink="http://www.w3.org/1999/xlink" version="1.1" x="0" y="0" viewBox="11.873403208343838 23.812 120.33420258048918 96.375" enable-background="new 0 0 144.083 144" xml:space="preserve" height="57.329795756523325" width="71.58220758976442" class="icon-icon-0" data-fill-palette-color="quaternary" id="icon-0"><rect x="38.758" y="93.806" width="6" height="11.723" fill="#010536" data-fill-palette-color="quaternary"></rect><rect x="27.758" y="93.806" width="6" height="11.723" fill="#010536" data-fill-palette-color="quaternary"></rect><rect x="109.446" y="93.806" width="6" height="11.723" fill="#010536" data-fill-palette-color="quaternary"></rect><rect x="98.446" y="93.806" width="6" height="11.723" fill="#010536" data-fill-palette-color="quaternary"></rect><path d="M132.122 82.455L122.122 41.544A3 3 0 0 0 119.208 39.256H50.292V26.812A3 3 0 0 0 47.292 23.812H33.292A3 3 0 0 0 30.292 26.812V39.257H24.876A3 3 0 0 0 21.962 41.545L11.96 82.455A2.996 2.996 0 0 0 14.874 86.166H16.607V117.187A3 3 0 0 0 19.607 120.187H124.475A3 3 0 0 0 127.475 117.187V86.167H129.207C130.129 86.167 130.998 85.744 131.566 85.02 132.137 84.295 132.34 83.35 132.122 82.455M55.883 68.889L72.218 49.887 88.2 68.871V114.188H55.883zM117.843 49.311H79.577L76.165 45.257H116.853zM36.292 29.812H44.292V39.257H36.292zM68.287 45.257L64.802 49.311H26.24L27.231 45.257zM22.608 86.167H49.883V114.188H22.608zM121.475 114.188H94.2V86.167H121.475z" fill="#010536" data-fill-palette-color="quaternary"></path><path d="M72.042 78.396A7.817 7.817 0 0 0 64.224 86.212V99.666H79.859V86.213A7.817 7.817 0 0 0 72.042 78.396" fill="#010536" data-fill-palette-color="quaternary"></path></svg></g></svg></g><g></g></svg></g></svg></g></svg></g></svg></g><defs></defs></svg><rect width="342.85155851775386" height="342.85155851775386" fill="none" stroke="none" visibility="hidden"></rect></g></svg></g></svg>