<svg xmlns="http://www.w3.org/2000/svg" version="1.1" xmlns:xlink="http://www.w3.org/1999/xlink" xmlns:svgjs="http://svgjs.dev/svgjs" width="128" height="128" viewBox="0 0 128 128"><g transform="matrix(0.8046875,0,0,0.8046875,12.41184074821259,12.814873242367177)"><svg viewBox="0 0 98 98" data-background-color="#010536" preserveAspectRatio="xMidYMid meet" height="127" width="128" xmlns="http://www.w3.org/2000/svg" xmlns:xlink="http://www.w3.org/1999/xlink"><g id="tight-bounds" transform="matrix(1,0,0,1,0.08387967645792571,0.08387967645792571)"><svg viewBox="0 0 97.83224064708415 97.83224064708415" height="97.83224064708415" width="97.83224064708415"><g><svg></svg></g><g><svg viewBox="0 0 97.83224064708415 97.83224064708415" height="97.83224064708415" width="97.83224064708415"><g><path d="M0 48.916c0-27.016 21.9-48.916 48.916-48.916 27.016 0 48.916 21.9 48.916 48.916 0 27.016-21.9 48.916-48.916 48.916-27.016 0-48.916-21.9-48.916-48.916zM48.916 94.157c24.986 0 45.241-20.255 45.241-45.241 0-24.986-20.255-45.241-45.241-45.241-24.986 0-45.241 20.255-45.241 45.241 0 24.986 20.255 45.241 45.241 45.241z" data-fill-palette-color="tertiary" fill="#ffffff" stroke="transparent"></path><ellipse rx="46.95947551060039" ry="46.95947551060039" cx="48.916120323542074" cy="48.916120323542074" fill="#ffffff" stroke="transparent" stroke-width="0" fill-opacity="1" data-fill-palette-color="tertiary"></ellipse></g><g transform="matrix(1,0,0,1,23.47539391502934,28.540782680194823)"><svg viewBox="0 0 50.88145281702547 40.7506752866945" height="40.7506752866945" width="50.88145281702547"><g><svg viewBox="0 0 50.88145281702547 40.7506752866945" height="40.7506752866945" width="50.88145281702547"><g><svg viewBox="0 0 50.88145281702547 40.7506752866945" height="40.7506752866945" width="50.88145281702547"><g id="textblocktransform"><svg viewBox="0 0 50.88145281702547 40.7506752866945" height="40.7506752866945" width="50.88145281702547" id="textblock"><g><svg viewBox="0 0 50.88145281702547 40.7506752866945" height="40.7506752866945" width="50.88145281702547"><g><svg viewBox="0 0 50.88145281702547 40.7506752866945" height="40.7506752866945" width="50.88145281702547"><g><svg xmlns="http://www.w3.org/2000/svg" xmlns:xlink="http://www.w3.org/1999/xlink" version="1.1" x="0" y="0" viewBox="11.873403208343838 23.812 120.33420258048918 96.375" enable-background="new 0 0 144.083 144" xml:space="preserve" height="40.7506752866945" width="50.88145281702547" class="icon-icon-0" data-fill-palette-color="quaternary" id="icon-0"><rect x="38.758" y="93.806" width="6" height="11.723" fill="#000000" data-fill-palette-color="quaternary"></rect><rect x="27.758" y="93.806" width="6" height="11.723" fill="#000000" data-fill-palette-color="quaternary"></rect><rect x="109.446" y="93.806" width="6" height="11.723" fill="#000000" data-fill-palette-color="quaternary"></rect><rect x="98.446" y="93.806" width="6" height="11.723" fill="#000000" data-fill-palette-color="quaternary"></rect><path d="M132.122 82.455L122.122 41.544A3 3 0 0 0 119.208 39.256H50.292V26.812A3 3 0 0 0 47.292 23.812H33.292A3 3 0 0 0 30.292 26.812V39.257H24.876A3 3 0 0 0 21.962 41.545L11.96 82.455A2.996 2.996 0 0 0 14.874 86.166H16.607V117.187A3 3 0 0 0 19.607 120.187H124.475A3 3 0 0 0 127.475 117.187V86.167H129.207C130.129 86.167 130.998 85.744 131.566 85.02 132.137 84.295 132.34 83.35 132.122 82.455M55.883 68.889L72.218 49.887 88.2 68.871V114.188H55.883zM117.843 49.311H79.577L76.165 45.257H116.853zM36.292 29.812H44.292V39.257H36.292zM68.287 45.257L64.802 49.311H26.24L27.231 45.257zM22.608 86.167H49.883V114.188H22.608zM121.475 114.188H94.2V86.167H121.475z" fill="#000000" data-fill-palette-color="quaternary"></path><path d="M72.042 78.396A7.817 7.817 0 0 0 64.224 86.212V99.666H79.859V86.213A7.817 7.817 0 0 0 72.042 78.396" fill="#000000" data-fill-palette-color="quaternary"></path></svg></g></svg></g></svg></g></svg></g></svg></g><g></g></svg></g></svg></g></svg></g><defs></defs></svg><rect width="250.83224064708415" height="250.83224064708415" fill="none" stroke="none" visibility="hidden"></rect></g></svg></g></svg>