<?xml version="1.0" standalone="no"?>
<!DOCTYPE svg PUBLIC "-//W3C//DTD SVG 20010904//EN"
 "http://www.w3.org/TR/2001/REC-SVG-20010904/DTD/svg10.dtd">
<svg version="1.0" xmlns="http://www.w3.org/2000/svg"
 width="2000.000000pt" height="1999.000000pt" viewBox="0 0 2000.000000 1999.000000"
 preserveAspectRatio="xMidYMid meet">
<metadata>
Created by potrace 1.16, written by Peter Selinger 2001-2019
</metadata>
<g transform="translate(0.000000,1999.000000) scale(0.100000,-0.100000)"
fill="#000000" stroke="none">
<path d="M7355 14495 c-56 -20 -111 -84 -124 -146 -7 -31 -11 -206 -11 -459
l0 -410 -197 0 c-170 0 -204 -3 -238 -19 -53 -24 -99 -77 -113 -132 -53 -191
-672 -2750 -672 -2774 0 -45 44 -126 83 -153 46 -31 90 -42 164 -42 l63 0 0
-1019 c0 -650 4 -1038 10 -1072 13 -66 50 -116 110 -146 l44 -23 3526 0 3526
0 44 23 c60 30 97 80 110 146 6 34 10 422 10 1072 l0 1019 63 0 c34 0 79 5
100 11 74 20 146 111 147 184 0 24 -619 2581 -672 2774 -14 55 -60 108 -113
132 -38 18 -137 19 -2352 19 l-2313 0 0 440 c0 420 -1 443 -20 480 -22 44 -68
82 -119 99 -54 18 -1003 15 -1056 -4z m800 -700 l0 -310 -267 -3 -268 -2 0
315 0 315 268 -2 267 -3 0 -310z m1585 -720 c0 -3 -50 -64 -111 -135 l-112
-130 -1278 0 c-763 0 -1279 4 -1279 9 0 10 47 213 56 244 5 16 79 17 1365 17
747 0 1359 -2 1359 -5z m3249 -32 c17 -62 51 -213 51 -223 0 -6 -464 -10
-1268 -10 l-1269 0 -98 118 c-54 64 -105 125 -113 135 -14 16 50 17 1336 17
l1351 0 10 -37z m-2444 -902 l525 -624 0 -1508 0 -1509 -1070 0 -1070 0 0
1508 0 1508 538 626 c295 345 540 626 544 625 4 -1 244 -283 533 -626z m-2015
-2711 l0 -930 -910 0 -910 0 0 930 0 930 910 0 910 0 0 -930z m4760 0 l0 -930
-910 0 -910 0 0 930 0 930 910 0 910 0 0 -930z"/>
<path d="M9895 10868 c-190 -36 -363 -210 -404 -406 -7 -34 -11 -221 -11 -522
l0 -470 520 0 520 0 0 470 c0 301 -4 488 -11 522 -58 278 -332 460 -614 406z"/>
<path d="M7060 9465 l0 -385 195 0 195 0 0 385 0 385 -195 0 -195 0 0 -385z"/>
<path d="M7790 9465 l0 -385 200 0 200 0 0 385 0 385 -200 0 -200 0 0 -385z"/>
<path d="M11760 9465 l0 -385 195 0 195 0 0 385 0 385 -195 0 -195 0 0 -385z"/>
<path d="M12490 9465 l0 -385 200 0 200 0 0 385 0 385 -200 0 -200 0 0 -385z"/>
<path d="M6360 7792 l-35 -7 0 -580 c0 -651 -3 -620 73 -647 39 -13 168 -16
215 -4 l27 6 0 171 0 171 91 -113 c161 -202 199 -235 289 -246 91 -11 164 47
185 146 7 33 4 37 -144 185 l-151 152 68 57 c198 165 239 245 171 332 -29 35
-93 64 -144 65 -38 0 -46 -6 -202 -162 l-163 -163 0 275 c0 295 -2 306 -52
343 -22 16 -45 21 -110 23 -46 1 -99 -1 -118 -4z"/>
<path d="M8440 7792 l-35 -7 0 -580 c0 -651 -3 -620 73 -647 39 -13 168 -16
215 -4 l27 6 0 573 c0 434 -3 578 -13 596 -25 48 -60 64 -149 67 -46 1 -99 -1
-118 -4z"/>
<path d="M8970 7792 l-35 -7 0 -577 c0 -569 0 -577 21 -605 33 -44 70 -57 159
-57 44 0 92 3 108 7 l27 7 0 576 c0 627 1 616 -57 644 -31 15 -169 22 -223 12z"/>
<path d="M3911 7674 c-29 -15 -57 -36 -61 -48 -9 -21 -60 -817 -60 -936 0 -72
14 -101 58 -124 42 -22 130 -28 197 -14 l60 13 6 110 c4 61 7 191 9 290 2 200
13 358 22 335 4 -8 34 -105 69 -215 73 -235 79 -249 122 -271 45 -24 159 -24
219 -1 42 16 48 23 61 65 57 193 132 431 134 428 2 -2 8 -149 14 -327 7 -185
16 -339 23 -358 17 -53 71 -76 171 -75 55 0 90 6 113 17 40 22 40 6 7 400 -36
421 -62 646 -79 672 -29 44 -82 60 -201 60 -172 0 -164 6 -230 -199 -30 -94
-68 -218 -85 -275 -18 -57 -35 -99 -39 -95 -4 5 -43 116 -85 247 -65 202 -82
242 -110 270 -42 42 -93 57 -198 57 -71 0 -92 -4 -137 -26z"/>
<path d="M11014 7691 c-49 -12 -90 -47 -108 -91 -14 -35 -16 -99 -16 -478 0
-612 -34 -565 420 -570 331 -4 366 0 396 45 21 33 23 120 5 176 l-13 37 -244
0 -244 0 0 100 0 100 184 0 c102 0 196 4 210 10 14 5 33 21 42 35 20 31 23
115 5 168 l-13 37 -214 0 -214 0 0 90 0 90 213 0 c235 0 251 4 280 60 21 41
19 117 -4 165 l-14 30 -320 2 c-176 0 -334 -2 -351 -6z"/>
<path d="M12855 7691 l-30 -6 -3 -420 c-1 -242 2 -447 7 -484 14 -91 47 -149
105 -188 67 -46 116 -58 236 -58 89 0 112 3 151 23 82 40 114 143 66 215 -15
23 -19 24 -72 15 -70 -13 -120 -3 -151 27 -24 24 -24 27 -24 210 l0 185 109 0
c100 0 110 2 133 23 35 33 44 92 24 162 l-17 55 -124 0 -125 0 0 73 c0 133
-45 178 -180 176 -41 -1 -88 -4 -105 -8z"/>
<path d="M14625 7691 l-30 -6 0 -470 c0 -470 0 -470 23 -520 31 -67 63 -98
133 -130 73 -32 196 -43 284 -25 74 15 129 65 141 124 9 52 -23 133 -52 128
-10 -2 -51 -4 -91 -5 -63 -2 -74 1 -97 22 l-26 24 0 189 0 188 106 0 c103 0
106 1 135 29 26 26 29 37 29 89 0 32 -5 73 -11 91 l-11 31 -123 0 -122 0 -5
85 c-7 97 -22 129 -73 151 -35 14 -153 17 -210 5z"/>
<path d="M5615 7490 c-160 -32 -279 -128 -337 -270 -20 -48 -22 -73 -22 -195
0 -122 3 -147 22 -196 73 -184 228 -285 453 -296 125 -7 223 8 297 44 64 30
92 70 92 132 0 45 -28 104 -54 114 -7 3 -44 -6 -82 -21 -58 -22 -86 -26 -179
-26 -96 -1 -116 2 -157 22 -26 13 -56 38 -67 55 l-20 32 22 7 c12 3 123 21
246 39 316 46 335 58 328 204 -4 97 -35 166 -104 237 -100 102 -279 150 -438
118z m188 -242 c19 -10 57 -66 57 -84 0 -6 -58 -20 -137 -33 -76 -12 -146 -25
-155 -27 -42 -12 -6 92 44 128 52 37 138 44 191 16z"/>
<path d="M7668 7484 c-177 -42 -298 -163 -333 -331 -41 -192 10 -382 132 -493
106 -97 231 -135 418 -127 178 7 278 51 305 133 16 47 6 93 -28 134 l-29 34
-49 -21 c-122 -52 -283 -57 -364 -12 -44 24 -89 74 -78 85 4 3 93 19 200 35
292 44 316 49 348 76 59 50 63 159 10 272 -84 177 -312 269 -532 215z m210
-240 c28 -18 64 -76 54 -85 -8 -8 -305 -59 -311 -53 -2 2 1 21 7 42 30 98 167
151 250 96z"/>
<path d="M9800 7493 c-117 -19 -243 -95 -298 -178 -61 -93 -76 -146 -76 -285
-1 -134 12 -192 61 -276 30 -53 117 -136 172 -164 175 -89 490 -77 599 23 35
33 47 91 27 142 -8 24 -24 50 -35 60 -19 17 -22 17 -72 -3 -84 -33 -128 -42
-209 -42 -95 0 -159 21 -199 66 -16 19 -30 39 -30 44 0 11 15 14 260 50 113
17 222 35 242 41 171 45 97 359 -110 472 -85 46 -227 68 -332 50z m142 -233
c39 -11 88 -60 88 -89 0 -15 -23 -22 -152 -43 -84 -14 -155 -24 -157 -22 -11
10 22 83 51 111 48 46 106 60 170 43z"/>
<path d="M12152 7489 c-53 -10 -145 -51 -187 -83 -17 -13 -44 -48 -60 -77 -25
-47 -29 -64 -29 -129 1 -162 88 -239 331 -296 120 -28 150 -46 139 -87 -8 -33
-46 -47 -129 -47 -78 0 -143 15 -224 50 -60 25 -70 22 -97 -34 -23 -49 -20
-107 7 -147 27 -42 110 -85 192 -100 95 -18 298 -6 368 21 131 50 200 142 200
267 -1 162 -88 242 -331 304 -64 17 -122 35 -129 41 -7 6 -13 21 -13 35 0 57
154 69 300 24 36 -11 70 -21 75 -22 18 -4 55 74 55 116 0 112 -126 177 -339
174 -47 -1 -105 -5 -129 -10z"/>
<path d="M13795 7490 c-67 -11 -143 -35 -165 -53 -49 -38 -65 -119 -36 -176
26 -49 36 -52 107 -30 84 26 233 36 293 19 54 -15 89 -49 84 -81 -3 -23 -9
-24 -154 -40 -179 -20 -248 -38 -306 -82 -65 -49 -93 -113 -93 -212 0 -67 4
-89 26 -130 32 -63 101 -116 188 -145 141 -48 396 -36 526 24 56 26 113 78
121 110 3 12 4 144 2 292 l-3 270 -30 60 c-37 71 -107 124 -205 155 -76 24
-260 33 -355 19z m285 -630 c0 -78 0 -80 -27 -87 -16 -5 -60 -8 -100 -8 -62 0
-75 3 -97 24 -42 40 -32 98 22 120 16 7 67 16 113 20 46 5 85 9 87 10 1 0 2
-35 2 -79z"/>
<path d="M15643 7485 c-190 -41 -320 -188 -343 -384 -22 -191 34 -358 153
-455 104 -85 239 -122 417 -113 183 9 286 64 297 159 6 48 -10 89 -44 121 -19
17 -23 16 -89 -10 -60 -24 -83 -27 -184 -27 -101 -1 -120 2 -158 22 -37 20
-88 79 -78 90 2 2 116 20 254 41 168 26 260 44 281 57 47 28 65 74 58 156 -21
250 -277 405 -564 343z m206 -240 c25 -13 70 -79 61 -89 -7 -6 -314 -55 -319
-50 -9 8 31 92 53 113 52 49 140 60 205 26z"/>
<path d="M5138 6222 c-17 -3 -18 -28 -18 -357 0 -380 0 -381 52 -373 l23 3 0
359 c0 350 0 359 -20 366 -11 3 -28 5 -37 2z"/>
<path d="M6530 5865 c0 -349 0 -354 21 -365 11 -7 32 -9 45 -6 24 6 24 8 24
128 l0 122 128 -127 c79 -78 136 -127 149 -127 20 0 53 29 53 46 0 5 -33 38
-72 73 -40 35 -96 85 -125 111 l-51 47 94 82 c52 46 101 93 110 105 18 29 9
54 -23 62 -22 6 -40 -9 -144 -112 l-119 -119 0 202 c0 111 -3 208 -6 217 -4
11 -19 16 -45 16 l-39 0 0 -355z"/>
<path d="M10119 6180 c-119 -14 -109 17 -109 -340 l0 -310 27 -17 c23 -15 50
-18 168 -18 133 0 143 1 197 28 116 57 170 158 170 317 1 84 -3 104 -27 158
-64 144 -212 207 -426 182z m238 -106 c86 -44 117 -99 121 -215 5 -111 -15
-176 -69 -230 -58 -58 -173 -84 -278 -63 l-31 7 0 263 c0 303 -12 274 117 270
68 -2 92 -7 140 -32z"/>
<path d="M3794 6166 c-3 -7 -4 -128 -2 -267 l3 -254 28 -47 c54 -92 183 -135
307 -104 76 20 125 56 157 116 22 42 23 52 23 301 0 252 0 258 -21 264 -11 4
-31 4 -45 1 l-24 -6 0 -249 c0 -241 -1 -249 -22 -281 -54 -78 -144 -101 -227
-58 -85 44 -86 46 -89 326 -2 156 -7 251 -14 259 -14 17 -67 17 -74 -1z"/>
<path d="M7355 6164 c-14 -15 -12 -22 26 -93 23 -42 77 -131 120 -199 l79
-123 0 -119 c0 -111 1 -120 21 -130 11 -7 32 -9 45 -6 24 6 24 8 24 127 l0
121 81 130 c119 191 156 265 143 286 -6 10 -24 17 -40 17 -26 0 -35 -12 -119
-162 -49 -89 -95 -167 -101 -173 -8 -9 -36 31 -105 150 -51 89 -99 168 -106
176 -19 19 -48 18 -68 -2z"/>
<path d="M13537 6173 c-4 -3 -7 -154 -7 -334 0 -323 0 -328 21 -339 11 -7 32
-9 45 -6 l24 6 0 150 0 150 175 0 175 0 0 -145 c0 -136 1 -145 21 -155 11 -7
32 -9 45 -6 l24 6 0 329 c0 358 0 356 -57 349 l-28 -3 -3 -147 -3 -148 -174 0
-175 0 0 138 c0 94 -4 142 -12 150 -13 13 -60 16 -71 5z"/>
<path d="M4660 6020 c-54 -9 -117 -35 -142 -57 -16 -15 -18 -37 -18 -233 0
-234 2 -245 52 -238 23 3 23 3 28 213 l5 210 30 15 c19 9 58 15 103 15 70 0
75 -1 103 -33 l29 -32 0 -185 c0 -177 1 -185 21 -195 11 -7 32 -9 45 -6 l24 6
0 193 c0 180 -1 196 -22 237 -37 73 -143 110 -258 90z"/>
<path d="M5559 6019 c-84 -13 -147 -60 -182 -138 -61 -136 -9 -315 109 -371
71 -35 173 -33 242 5 51 28 90 73 113 130 16 41 16 171 0 219 -16 45 -72 111
-114 132 -40 21 -113 31 -168 23z m128 -89 c49 -30 75 -90 75 -175 0 -127 -55
-195 -158 -195 -102 0 -159 70 -159 195 0 83 24 138 75 173 43 29 121 30 167
2z"/>
<path d="M6176 6019 c-68 -11 -135 -55 -171 -113 -25 -42 -31 -62 -34 -128 -4
-101 12 -157 61 -212 49 -57 109 -80 203 -80 111 0 185 51 145 99 -10 12 -18
12 -51 -5 -55 -29 -145 -27 -189 3 -59 40 -75 70 -78 155 -3 65 0 84 20 122
43 84 154 116 243 70 29 -15 42 -17 52 -9 21 18 15 46 -13 68 -23 18 -41 23
-119 35 -11 2 -42 0 -69 -5z"/>
<path d="M8189 6019 c-61 -9 -98 -30 -141 -77 -47 -52 -63 -101 -63 -193 1
-65 5 -85 31 -135 23 -47 40 -65 82 -90 61 -37 130 -49 200 -33 73 15 124 56
158 126 25 49 29 70 29 138 -1 59 -6 92 -21 125 -49 106 -153 159 -275 139z
m131 -91 c51 -35 74 -90 74 -173 0 -126 -56 -195 -159 -195 -102 0 -158 69
-158 195 0 124 60 195 164 195 31 0 57 -7 79 -22z"/>
<path d="M9404 6020 c-57 -8 -133 -39 -152 -62 -9 -12 -12 -69 -10 -233 3
-238 5 -245 61 -231 l27 6 0 209 0 208 28 13 c15 7 64 15 109 18 83 5 99 13
87 47 -6 13 -66 36 -89 34 -5 -1 -33 -5 -61 -9z"/>
<path d="M10885 6020 c-62 -9 -117 -32 -144 -59 -20 -20 -21 -31 -21 -236 0
-207 1 -215 21 -225 11 -7 32 -9 45 -6 l24 6 0 209 0 209 33 12 c17 7 68 15
112 19 71 5 80 8 83 27 2 11 -3 25 -10 31 -19 16 -86 22 -143 13z"/>
<path d="M11313 6019 c-54 -10 -91 -30 -130 -71 -44 -45 -63 -105 -63 -197 0
-171 100 -267 276 -265 108 1 185 44 169 94 -8 25 -12 25 -66 0 -49 -22 -140
-27 -186 -9 -57 21 -123 111 -95 128 6 4 87 17 179 30 92 13 174 28 181 33 17
14 15 81 -4 126 -41 99 -146 152 -261 131z m148 -105 c34 -34 55 -92 36 -99
-18 -7 -291 -44 -295 -40 -8 7 11 75 29 104 31 52 75 73 142 68 48 -3 63 -8
88 -33z"/>
<path d="M11865 6023 c-84 -9 -145 -39 -145 -72 1 -38 14 -42 76 -20 78 28
163 23 199 -11 19 -18 25 -34 25 -65 l0 -41 -105 -11 c-173 -18 -225 -57 -225
-169 0 -54 2 -59 40 -95 29 -28 53 -40 96 -49 94 -20 217 2 266 47 16 14 18
36 18 190 0 191 -4 210 -60 256 -35 30 -116 47 -185 40z m155 -363 c0 -77 -1
-81 -26 -90 -36 -14 -144 -12 -174 3 -53 27 -61 103 -14 134 25 16 99 30 172
32 l42 1 0 -80z"/>
<path d="M12420 6016 c-57 -12 -93 -28 -122 -54 -16 -14 -18 -38 -18 -238 l0
-224 25 -6 c55 -14 55 -12 55 210 l0 206 27 17 c19 13 47 18 96 18 63 0 71 -2
93 -28 24 -28 24 -32 24 -217 0 -182 1 -190 21 -200 11 -7 32 -9 45 -6 l25 7
-1 201 -2 202 27 20 c56 40 170 30 198 -18 8 -13 14 -89 17 -210 5 -206 9
-216 63 -202 l27 6 -1 168 c0 251 -12 293 -92 335 -56 29 -165 26 -228 -7
l-49 -25 -42 23 c-54 30 -118 37 -188 22z"/>
<path d="M14419 6019 c-147 -23 -234 -167 -200 -331 31 -146 161 -229 309
-198 73 16 124 57 158 127 25 49 29 70 29 138 -1 59 -6 92 -21 125 -49 106
-153 159 -275 139z m131 -91 c51 -35 74 -90 74 -173 0 -126 -56 -195 -159
-195 -103 0 -157 68 -157 195 0 89 27 147 82 177 49 25 119 24 160 -4z"/>
<path d="M15013 6019 c-53 -10 -124 -41 -141 -61 -9 -12 -12 -69 -10 -233 3
-238 5 -245 61 -231 l27 6 0 211 0 210 35 15 c19 7 57 14 85 14 44 0 56 -5 81
-29 l29 -29 0 -191 c0 -183 1 -191 21 -201 11 -7 32 -9 45 -6 l24 6 0 205 0
205 40 20 c67 34 164 20 186 -27 5 -10 11 -103 14 -207 5 -206 9 -216 63 -202
l27 6 0 178 c0 188 -7 240 -37 281 -49 67 -191 86 -284 37 l-49 -25 -42 23
c-50 27 -115 37 -175 25z"/>
<path d="M15935 6020 c-82 -12 -154 -72 -185 -155 -17 -43 -16 -152 0 -210 19
-68 87 -136 155 -155 71 -21 171 -17 227 8 51 22 70 55 46 78 -12 13 -20 12
-59 -5 -49 -23 -140 -28 -186 -10 -57 21 -123 111 -95 128 6 4 87 17 179 30
92 13 174 28 181 33 6 6 12 25 12 42 0 142 -124 239 -275 216z m145 -105 c25
-24 50 -88 39 -100 -2 -2 -60 -11 -129 -20 -69 -9 -135 -18 -147 -21 -57 -12
9 140 71 167 12 5 47 7 79 6 47 -3 62 -8 87 -32z"/>
<path d="M8643 6013 c-10 -3 -13 -52 -13 -197 0 -179 1 -195 23 -236 16 -33
34 -51 71 -69 85 -44 267 -29 328 26 16 15 18 37 18 239 0 212 -1 224 -20 234
-11 6 -31 8 -45 4 l-25 -6 0 -213 0 -213 -36 -12 c-20 -7 -65 -10 -100 -8
-116 7 -133 44 -134 290 0 135 -2 148 -19 158 -21 11 -29 11 -48 3z"/>
</g>
</svg>
